<svg xmlns="http://www.w3.org/2000/svg" xmlns:xlink="http://www.w3.org/1999/xlink" width="1024" height="1024" viewBox="0 0 1024 1024"><path fill="white" d="M677.551 504.765C711.468 525.613 733.117 557.562 742.276 596.039C752.329 638.358 745.061 682.94 722.088 719.876C694.61 764.473 645.76 793.837 595.389 805.368C536.91 818.756 474.878 813.644 417.308 798.255C358.068 782.419 309.567 750.549 263.826 710.656C278.331 692.389 292.737 674.044 307.043 655.622C314.826 645.666 325.783 632.453 332.863 622.297C363.307 646.503 387.354 662.221 422.771 677.927C415.964 692.754 409.068 707.54 402.082 722.284C398.893 729.075 393.956 738.836 391.285 745.649C388.072 750.978 382.957 762.103 380.09 767.948C405.279 745.509 435.049 716.616 458.865 692.542C502.22 705.228 560.272 716.855 601.433 693.968C651.107 666.348 648.375 606.997 594.903 585.222L677.551 504.765Z" data-index="1" style="opacity: 1;"></path><path fill="white" d="M507.046 203.722C515.464 203.198 527.883 203.917 536.319 204.504C594.121 208.379 649.569 228.888 695.979 263.56L636.218 337.954C617.257 326.424 597.718 316.019 576.176 309.489C538.037 297.929 494.839 295.866 456.256 306.701C451.143 307.874 446.442 310.59 441.779 312.592C418.409 322.626 400.034 357.821 413.914 381.62C430.518 410.092 483.796 425.709 513.867 434.385C519.346 436.119 526.047 437.753 531.681 439.264L440.703 528.627C403.809 517.145 369.192 503.337 340.297 476.937C279.16 421.08 279.766 328.039 336.022 269.319C382.418 220.89 441.915 205.885 507.046 203.722Z" data-index="2"></path><path fill="#FFBA00" d="M458.385 538.973C464.294 532.011 478.197 519.268 485.11 512.474L542.976 455.892C594.732 405.831 646.065 355.333 696.968 304.405C689.976 315.825 683.174 328.03 676.41 339.634L636.869 407.316L612.817 447.818C607.926 456.024 601.806 465.957 597.526 474.354C618.237 473.756 639.117 473.841 659.843 473.312C666.367 473.145 674.01 472.906 680.435 473.651C676.684 478.487 664.306 489.648 659.265 494.57C643.814 509.89 628.279 525.123 612.658 540.268L535.547 616.827C510.173 641.812 483.663 667.091 458.865 692.542C435.049 716.616 405.279 745.509 380.09 767.948C382.957 762.103 388.072 750.978 391.285 745.649C395.379 741.297 405.749 725.992 409.634 720.428L442.891 672.642L504.092 584.219C514.329 569.318 525.631 553.259 535.353 538.115C509.952 537.765 484.032 539.149 458.385 538.973Z" data-index="3"></path></svg>